<svg width="53" height="13" viewBox="0 0 53 13" fill="none" xmlns="http://www.w3.org/2000/svg">
<path d="M44.7181 11.9835C44.6663 12.0218 44.6057 12.0514 44.5398 12.0707C44.4738 12.09 44.4038 12.0986 44.3338 12.096C44.2637 12.0934 44.195 12.0796 44.1315 12.0555C44.068 12.0314 44.011 11.9974 43.9638 11.9554C43.9165 11.9134 43.8799 11.8643 43.8561 11.8109C43.8323 11.7575 43.8217 11.7008 43.8249 11.6441C43.8281 11.5873 43.8451 11.5316 43.8749 11.4802C43.9047 11.4288 43.9467 11.3826 43.9985 11.3444L50.5844 6.47517L1.05344 6.39408C0.911842 6.39408 0.776048 6.34852 0.675926 6.26742C0.575804 6.18632 0.519554 6.07633 0.519554 5.96165C0.519554 5.84696 0.575804 5.73697 0.675926 5.65587C0.776048 5.57477 0.911842 5.52921 1.05344 5.52921L50.5812 5.61031L43.9985 0.741985C43.8993 0.66362 43.8416 0.557092 43.8376 0.444912C43.8336 0.332731 43.8836 0.223685 43.977 0.140816C44.0705 0.0579474 44.2 0.00774764 44.3383 0.000824296C44.4766 -0.00609905 44.6128 0.0307965 44.7181 0.103715L52.1028 5.56447C52.1955 5.63271 52.267 5.71769 52.3115 5.81251C52.356 5.90733 52.3723 6.00932 52.359 6.1102C52.3394 6.26862 52.2481 6.41555 52.1028 6.52274L44.7181 11.9835Z" fill="#1269CD"/>
</svg>
